<svg xmlns="http://www.w3.org/2000/svg" xmlns:xlink="http://www.w3.org/1999/xlink" width="1280" height="640" viewBox="0 0 1280 640">
  <defs>
    <linearGradient id="bg" x1="0" y1="0" x2="1" y2="1"><stop stop-color="#071b1a"/><stop offset="1" stop-color="#12443c"/></linearGradient>
    <filter id="shadow" x="-20%" y="-20%" width="140%" height="150%"><feDropShadow dx="0" dy="16" stdDeviation="18" flood-color="#000" flood-opacity="0.36"/></filter>
    <clipPath id="screen"><rect x="62" y="315" width="770" height="260" rx="16"/></clipPath>
    <pattern id="grid" width="44" height="44" patternUnits="userSpaceOnUse"><path d="M44 0H0V44" fill="none" stroke="#fff" stroke-opacity=".035"/></pattern>
  </defs>
  <rect width="1280" height="640" fill="url(#bg)"/><rect width="1280" height="640" fill="url(#grid)"/>
  <circle cx="1180" cy="0" r="300" fill="#2ac4a4" fill-opacity=".08"/>
  <g transform="translate(62 44)"><rect width="36" height="36" rx="10" fill="#2ac4a4"/><path d="M8 18 18 9l10 9v10H8Z" fill="none" stroke="#07302b" stroke-width="2.3"/><text x="50" y="27" font-family="-apple-system,BlinkMacSystemFont,'Segoe UI',sans-serif" font-size="25" font-weight="750" letter-spacing="1" fill="#f4fffb">NESTEASE</text></g>
  <text x="62" y="157" font-family="-apple-system,BlinkMacSystemFont,'Segoe UI',sans-serif" font-size="50" font-weight="760" letter-spacing="-2" fill="#f7fffc">AI-native maintenance coordination</text>
  <text x="62" y="209" font-family="-apple-system,BlinkMacSystemFont,'Segoe UI',sans-serif" font-size="22" fill="#b9d6d0">Bilingual contractor SMS in the field. Structured approvals and</text>
  <text x="62" y="241" font-family="-apple-system,BlinkMacSystemFont,'Segoe UI',sans-serif" font-size="22" fill="#b9d6d0">auditable work orders for the property manager.</text>
  <g filter="url(#shadow)"><rect x="62" y="286" width="770" height="289" rx="20" fill="#f8fafc"/><rect x="62" y="286" width="770" height="29" rx="20" fill="#dbe5e3"/><circle cx="84" cy="300" r="4.5" fill="#f06b63"/><circle cx="101" cy="300" r="4.5" fill="#e8b34f"/><circle cx="118" cy="300" r="4.5" fill="#4bbd78"/><image x="62" y="315" width="770" height="260" xlink:href="../../nestease/public/hero-kanban.png" preserveAspectRatio="xMidYMid slice" clip-path="url(#screen)"/></g>
  <g filter="url(#shadow)"><rect x="874" y="132" width="342" height="443" rx="32" fill="#f8faf9"/><rect x="982" y="145" width="126" height="18" rx="9" fill="#102825"/><text x="904" y="198" font-family="-apple-system,BlinkMacSystemFont,'Segoe UI',sans-serif" font-size="11" font-weight="700" letter-spacing="1.1" fill="#748783">SANITIZED DEMO</text><text x="904" y="229" font-family="-apple-system,BlinkMacSystemFont,'Segoe UI',sans-serif" font-size="19" font-weight="740" fill="#132c28">Contractor SMS</text>
  <rect x="904" y="251" width="256" height="62" rx="16" fill="#dff5ee"/><text x="921" y="276" font-family="-apple-system,BlinkMacSystemFont,'Segoe UI',sans-serif" font-size="14" fill="#173e37">新工单：厨房水龙头漏水。</text><text x="921" y="298" font-family="-apple-system,BlinkMacSystemFont,'Segoe UI',sans-serif" font-size="14" fill="#173e37">明天下午可以上门吗？</text>
  <rect x="952" y="329" width="234" height="62" rx="16" fill="#e9edef"/><text x="969" y="354" font-family="-apple-system,BlinkMacSystemFont,'Segoe UI',sans-serif" font-size="14" fill="#20302e">可以。2小时 × $80，</text><text x="969" y="376" font-family="-apple-system,BlinkMacSystemFont,'Segoe UI',sans-serif" font-size="14" fill="#20302e">材料 $45。</text>
  <rect x="904" y="407" width="282" height="80" rx="16" fill="#dff5ee"/><text x="921" y="432" font-family="-apple-system,BlinkMacSystemFont,'Segoe UI',sans-serif" font-size="14" fill="#173e37">Quote confirmed: $205 total.</text><text x="921" y="454" font-family="-apple-system,BlinkMacSystemFont,'Segoe UI',sans-serif" font-size="14" fill="#173e37">Submitting for owner approval.</text><text x="921" y="476" font-family="-apple-system,BlinkMacSystemFont,'Segoe UI',sans-serif" font-size="11" font-weight="700" fill="#15846f">AI → STRUCTURED WORKFLOW</text>
  <rect x="904" y="505" width="282" height="43" rx="15" fill="#173f38"/><text x="926" y="532" font-family="-apple-system,BlinkMacSystemFont,'Segoe UI',sans-serif" font-size="12" font-weight="700" letter-spacing=".7" fill="#edfffa">9 TOOLS · 9 STATES · 38 API ROUTES</text></g>
  <text x="62" y="610" font-family="-apple-system,BlinkMacSystemFont,'Segoe UI',sans-serif" font-size="13" font-weight="650" letter-spacing="1.4" fill="#75d8c4">NEXT.JS · TYPESCRIPT · CLAUDE · SUPABASE · TELNYX</text>
</svg>
